<?xml version="1.0" encoding="UTF-8"?>
<svg width="386px" height="382px" viewBox="0 0 386 382" version="1.1" xmlns="http://www.w3.org/2000/svg" xmlns:xlink="http://www.w3.org/1999/xlink">
    <!-- Generator: Sketch 61 (89581) - https://sketch.com -->
    <title>Group 20</title>
    <desc>Created with Sketch.</desc>
    <g id="Page-1" stroke="none" stroke-width="1" fill="none" fill-rule="evenodd">
        <g id="Group-20">
            <path d="M247.5,-43 C299.138624,-43 341,-1.13862411 341,50.5 C341,102.138624 299.138624,144 247.5,144 C231.390296,144 216.232165,139.925828 202.999765,132.751642 L202.998762,157.248901 C176.450241,171.643085 157.65367,198.515991 154.476674,229.999992 L154,230 L154,53 L154.032801,53.0010032 C154.010979,52.1699906 154,51.3362775 154,50.5 C154,-1.13862411 195.861376,-43 247.5,-43 Z M248,5 C223.147186,5 203,25.1471863 203,50 C203,74.8528137 223.147186,95 248,95 C272.852814,95 293,74.8528137 293,50 C293,25.1471863 272.852814,5 248,5 Z" id="Combined-Shape-Copy-29" fill="#FE6E00" transform="translate(247.500000, 93.500000) rotate(90.000000) translate(-247.500000, -93.500000) "></path>
            <path d="M93.5,0 C145.138624,0 187,41.8613759 187,93.5 C187,145.138624 145.138624,187 93.5,187 C77.3902956,187 62.2321649,182.925828 48.9997651,175.751642 L48.9987624,200.248901 C22.4502412,214.643085 3.65366974,241.515991 0.476673832,272.999992 L0,273 L0,96 L0.0328008892,96.0010032 C0.0109790549,95.1699906 0,94.3362775 0,93.5 C0,41.8613759 41.8613759,0 93.5,0 Z M94,48 C69.1471863,48 49,68.1471863 49,93 C49,117.852814 69.1471863,138 94,138 C118.852814,138 139,117.852814 139,93 C139,68.1471863 118.852814,48 94,48 Z" id="Combined-Shape-Copy-30" fill="#FE6E00"></path>
            <path d="M138.5,152 C190.138624,152 232,193.861376 232,245.5 C232,297.138624 190.138624,339 138.5,339 C122.390296,339 107.232165,334.925828 93.9997651,327.751642 L93.9987624,352.248901 C67.4502412,366.643085 48.6536697,393.515991 45.4766738,424.999992 L45,425 L45,248 L45.0328009,248.001003 C45.0109791,247.169991 45,246.336277 45,245.5 C45,193.861376 86.8613759,152 138.5,152 Z M139,200 C114.147186,200 94,220.147186 94,245 C94,269.852814 114.147186,290 139,290 C163.852814,290 184,269.852814 184,245 C184,220.147186 163.852814,200 139,200 Z" id="Combined-Shape-Copy-31" fill="#FE6E00" transform="translate(138.500000, 288.500000) rotate(270.000000) translate(-138.500000, -288.500000) "></path>
            <path d="M292.5,109 C344.138624,109 386,150.861376 386,202.5 C386,254.024986 346.811674,294.820105 295.340737,294.999407 L295.287107,295.027426 C283.898309,295.309555 272.772643,297.759489 262.365409,301.965202 C258.530523,303.210665 254.72932,305.031111 250.962696,307.427423 C223.997158,322.466175 203.762692,349.617033 199.733905,380.305897 C199.491222,380.867919 199.245523,381.432487 199,382 L199,205 L199.034774,205.001224 C199.011644,204.170397 199,203.336613 199,202.5 C199,150.861376 240.861376,109 292.5,109 Z M293,157 C268.147186,157 248,177.147186 248,202 C248,226.852814 268.147186,247 293,247 C317.852814,247 338,226.852814 338,202 C338,177.147186 317.852814,157 293,157 Z" id="Combined-Shape-Copy-32" fill="#86BC24" transform="translate(292.500000, 245.500000) rotate(180.000000) translate(-292.500000, -245.500000) "></path>
        </g>
    </g>
</svg>