<svg version="1.2" xmlns="http://www.w3.org/2000/svg" xmlns:xlink="http://www.w3.org/1999/xlink" overflow="visible" preserveAspectRatio="none" viewBox="0 0 308 54" width="308" height="54"><g transform="translate(0, 0)"><defs><path id="path-15851996152125132" d="M0 27.000000000000014 C0 12.088311755400007 12.088311755400007 0 27.000000000000014 0 C27.000000000000014 0 280.9999999999998 0 280.9999999999998 0 C295.91168824459976 0 307.9999999999998 12.088311755400007 307.9999999999998 27.000000000000014 C307.9999999999998 27.000000000000014 307.9999999999998 27.000000000000014 307.9999999999998 27.000000000000014 C307.9999999999998 41.91168824460002 295.91168824459976 54.00000000000003 280.9999999999998 54.00000000000003 C280.9999999999998 54.00000000000003 27.000000000000014 54.00000000000003 27.000000000000014 54.00000000000003 C12.088311755400007 54.00000000000003 0 41.91168824460002 0 27.000000000000014 C0 27.000000000000014 0 27.000000000000014 0 27.000000000000014 Z" vector-effect="non-scaling-stroke"/><linearGradient id="gradient-15851996152525225" x1="0%" y1="50%" x2="100%" y2="50%" vector-effect="non-scaling-stroke"><stop offset="0%" stop-color="rgb(151,111,64)" stop-opacity="1" vector-effect="non-scaling-stroke"/><stop offset="53%" stop-color="rgb(255,203,133)" stop-opacity="1" vector-effect="non-scaling-stroke"/><stop offset="100%" stop-color="rgb(151,111,64)" stop-opacity="1" vector-effect="non-scaling-stroke"/></linearGradient></defs><g transform="translate(0, 0)"><path d="M0 27.000000000000014 C0 12.088311755400007 12.088311755400007 0 27.000000000000014 0 C27.000000000000014 0 280.9999999999998 0 280.9999999999998 0 C295.91168824459976 0 307.9999999999998 12.088311755400007 307.9999999999998 27.000000000000014 C307.9999999999998 27.000000000000014 307.9999999999998 27.000000000000014 307.9999999999998 27.000000000000014 C307.9999999999998 41.91168824460002 295.91168824459976 54.00000000000003 280.9999999999998 54.00000000000003 C280.9999999999998 54.00000000000003 27.000000000000014 54.00000000000003 27.000000000000014 54.00000000000003 C12.088311755400007 54.00000000000003 0 41.91168824460002 0 27.000000000000014 C0 27.000000000000014 0 27.000000000000014 0 27.000000000000014 Z" style="stroke: rgb(140, 140, 140); stroke-width: 0; stroke-linecap: butt; stroke-linejoin: miter; fill: url(&quot;#gradient-15851996152525225&quot;);" vector-effect="non-scaling-stroke"/></g></g></svg>