<svg version="1.2" xmlns="http://www.w3.org/2000/svg" xmlns:xlink="http://www.w3.org/1999/xlink" overflow="visible" preserveAspectRatio="none" viewBox="0 0 308 35" width="308" height="35"><g transform="translate(0, 0)"><defs><path id="path-15851996151785101" d="M0 8.000000000000002 C0 3.581722001600001 3.581722001600001 0 8.000000000000002 0 C8.000000000000002 0 299.9999999999999 0 299.9999999999999 0 C304.4182779983999 0 307.9999999999999 3.581722001600001 307.9999999999999 8.000000000000002 C307.9999999999999 8.000000000000002 307.9999999999999 27 307.9999999999999 27 C307.9999999999999 31.4182779984 304.4182779983999 35 299.9999999999999 35 C299.9999999999999 35 8.000000000000002 35 8.000000000000002 35 C3.581722001600001 35 0 31.4182779984 0 27 C0 27 0 8.000000000000002 0 8.000000000000002 Z" vector-effect="non-scaling-stroke"/><linearGradient id="gradient-15851996153315335" x1="0%" y1="50%" x2="100%" y2="50%" vector-effect="non-scaling-stroke"><stop offset="0%" stop-color="rgb(151,111,64)" stop-opacity="1" vector-effect="non-scaling-stroke"/><stop offset="53%" stop-color="rgb(255,203,133)" stop-opacity="1" vector-effect="non-scaling-stroke"/><stop offset="100%" stop-color="rgb(151,111,64)" stop-opacity="1" vector-effect="non-scaling-stroke"/></linearGradient></defs><g transform="translate(0, 0)"><path d="M0 8.000000000000002 C0 3.581722001600001 3.581722001600001 0 8.000000000000002 0 C8.000000000000002 0 299.9999999999999 0 299.9999999999999 0 C304.4182779983999 0 307.9999999999999 3.581722001600001 307.9999999999999 8.000000000000002 C307.9999999999999 8.000000000000002 307.9999999999999 27 307.9999999999999 27 C307.9999999999999 31.4182779984 304.4182779983999 35 299.9999999999999 35 C299.9999999999999 35 8.000000000000002 35 8.000000000000002 35 C3.581722001600001 35 0 31.4182779984 0 27 C0 27 0 8.000000000000002 0 8.000000000000002 Z" style="stroke: rgb(140, 140, 140); stroke-width: 0; stroke-linecap: butt; stroke-linejoin: miter; fill: url(&quot;#gradient-15851996153315335&quot;);" vector-effect="non-scaling-stroke"/></g></g></svg>