<?xml version="1.0" encoding="UTF-8"?>
<svg width="30px" height="41px" viewBox="0 0 30 41" version="1.1" xmlns="http://www.w3.org/2000/svg" xmlns:xlink="http://www.w3.org/1999/xlink">
    <!-- Generator: Sketch 61 (89581) - https://sketch.com -->
    <title>Group 24</title>
    <desc>Created with Sketch.</desc>
    <g id="Page-1" stroke="none" stroke-width="1" fill="none" fill-rule="evenodd">
        <g id="Group-24" fill="#888880">
            <path d="M21,25.9151786 L19.8816964,25.9151786 C18.3950893,26.5982143 16.7410714,26.9866071 15,26.9866071 C13.2589286,26.9866071 11.6116071,26.5982143 10.1183036,25.9151786 L9,25.9151786 C4.03125,25.9151786 0,29.9464286 0,34.9151786 L0,37.7008929 C0,39.4754464 1.43973214,40.9151786 3.21428571,40.9151786 L26.7857143,40.9151786 C28.5602679,40.9151786 30,39.4754464 30,37.7008929 L30,34.9151786 C30,29.9464286 25.96875,25.9151786 21,25.9151786 Z" id="Path" fill-rule="nonzero"></path>
            <path d="M14.8325893,2.00728323e-13 C19.6959003,2.00728323e-13 23.6383929,3.94298674 23.6383929,8.80690738 C23.6383929,13.5630686 20.093788,17.348586 15.389546,17.5139867 L15.2711686,17.5111607 C10.7183185,17.5111607 6.55972911,21.210015 6.04642845,25.6684804 L6.02678571,25.7142857 L6.02678571,25.7142857 L6.02678571,8.80690738 L6.02678571,8.80690738 C6.02678571,3.94298674 9.96927826,2.00728323e-13 14.8325893,2.00728323e-13 Z M14.8796791,4.52119309 C12.5390482,4.52119309 10.6415919,6.41888725 10.6415919,8.75981162 C10.6415919,11.100736 12.5390482,12.9984301 14.8796791,12.9984301 C17.2203101,12.9984301 19.1177664,11.100736 19.1177664,8.75981162 C19.1177664,6.41888725 17.2203101,4.52119309 14.8796791,4.52119309 Z" id="Combined-Shape-Copy-32" transform="translate(14.832589, 12.857143) rotate(180.000000) translate(-14.832589, -12.857143) "></path>
        </g>
    </g>
</svg>